<svg version="1" xmlns="http://www.w3.org/2000/svg" width="112" height="55" viewBox="0 0 112 55"><path fill="#FFF" d="M12.12 31.78c1.37-1.55 4.09-2.59 6.4-2.5 5.11.2 8.31 3.02 8.31 8.56 0 10.61-6.3 16.58-15.67 16.58-3.67 0-7.88-.79-11.16-2.04l5.46-30.72c.43-2.51 1.42-3.5 4.49-3.5h4.57l-2.4 13.62zM9.35 47.63c.84.24 1.04.25 2.13.25 3.88 0 6.58-3.69 6.58-8.86 0-2.37-1.1-3.26-3-3.26-1.66 0-3.72 1.47-4.01 2.08l-1.7 9.79zM53.94 53.2c.28.6.99 1.24 2.62 1.22 1.86 0 3.96-.29 6.24-.29 3.58 0 4.84.23 9.49.31 1.83.03 2.81-.62 3.23-2.56.25-1.13.5-2.46.77-4.34-1.89.18-3.72.06-5.26-.03-2.17-.14-4.48-.27-6.29-.12.83-1.28 2.18-2.96 4.46-5.1 1.07-1.01 3.01-2.63 5.06-4.87 2.06-2.24 4.44-4.83 3.71-8.15-2.28.15-3.89.22-6.91.22-3.71 0-8.34-.22-10.81-.22-2.11 0-3.11.7-3.5 2.39-.33 1.45-.91 4.59-.91 4.59.37-.1 2.02-.21 3.42-.2 1.41.01 5.18.1 5.98.21-.34 1.06-3.69 3.54-5.78 5.85-1.31 1.45-3.49 3.93-4.6 5.79-2.89 1.54-4.54 1.07-4.27-1.16l1.19-6.69c.13-1.28.47-2.67.41-3.91-.24-4.35-3.03-7.01-7.82-7.01-2.62 0-4.52 1.33-5.95 2.56 0 0-.36-2.02-3.07-2.15l-4.66-.01-3.77 21.35c-.52 2.79.46 3.2 2.95 3.2l4.75.01 2.87-16.02c.35-.77 2.03-2.41 4.13-2.41 1.35 0 2.53.66 2.24 2.41-.09.54-1.46 8.62-1.46 8.62-.38 2.77.57 4.99 1.51 5.83 1.23 1.28 2.98 1.86 4.74 1.93 2.02.06 4.21-.4 5.29-1.25z"/><g fill="#FAA61A"><path d="M96.73 0l.6 3.87c.06.37.38.63.76.63h4.08c-3.7 2.39-3.69 2.39-3.7 2.39-.35.23-.56.65-.51 1.01 0 .01.6 3.88.6 3.88h-.01c-2.89-2.39-2.88-2.39-2.89-2.39-.28-.23-.72-.23-1.07 0-.01 0-3.71 2.4-3.71 2.4l1.91-3.87c.18-.37.11-.79-.15-1.02-.01 0-2.89-2.4-2.89-2.4h4.08c.39 0 .79-.26.97-.62.01-.01 1.93-3.88 1.93-3.88zM84.05 8.02l.6 3.87c.06.37.38.63.76.63h4.08c-3.7 2.39-3.69 2.39-3.7 2.39-.35.23-.56.66-.51 1.02 0 .01.6 3.88.6 3.88h-.01c-2.89-2.39-2.88-2.39-2.89-2.39-.28-.23-.73-.23-1.07 0-.01 0-3.71 2.4-3.71 2.4l1.91-3.87c.18-.37.12-.79-.15-1.02-.01 0-2.89-2.4-2.89-2.4h4.08c.39 0 .8-.26.97-.62.02-.02 1.93-3.89 1.93-3.89zM106.56 8.02l.6 3.87c.06.37.38.63.76.63H112c-3.7 2.39-3.69 2.39-3.7 2.39-.35.23-.56.66-.51 1.02 0 .01.6 3.88.6 3.88h-.01l-2.89-2.39c-.27-.23-.72-.23-1.07 0-.01 0-3.71 2.4-3.71 2.4l1.91-3.87c.18-.37.11-.79-.15-1.02l-2.89-2.4h4.08c.39 0 .79-.26.97-.62.02-.02 1.93-3.89 1.93-3.89zM92.07 24.69l.6 3.87c.06.37.38.63.76.63h4.08c-3.7 2.39-3.69 2.39-3.7 2.39-.35.23-.56.66-.51 1.02 0 .01.6 3.88.6 3.88h-.01C91 34.09 91.01 34.09 91 34.09c-.28-.23-.73-.23-1.07 0-.01 0-3.71 2.4-3.71 2.4l1.91-3.87c.18-.37.12-.79-.15-1.02l-2.89-2.4h4.08c.39 0 .79-.26.97-.62.02-.02 1.93-3.89 1.93-3.89z"/></g></svg>